# xmcd
#
# Track frame offsets: 
#        150
#        23817
#        48849
#        70244
#        91209
#        113489
#        140339
#        155851
#        171396
#        208089
#        239264
#        256083
#        283062
#        298484
#        310787
#        345729
#
# Disc length: 4791 seconds
#
# Revision: 1
# Processed by: cddbd v1.5.2PL0 Copyright (c) Steve Scherf et al.
# Submitted via: ExactAudioCopy v1.3
#
DISCID=ef12b510
DTITLE=Various Artist - Akella Presents - vol.87 - Black Pure Blues  
DTITLE=CD1
DYEAR=2016
DGENRE=Blues
TTITLE0=Marquise Knox - Love Making Machine
TTITLE1=Willie King - Betty's Place
TTITLE2=Big James - Baby I'm Gone
TTITLE3=Mighty Sam McClain - Here I Come Again
TTITLE4=Jay Owens - Come On To My House
TTITLE5=Ray Bailey - Bad Times, Sad Times
TTITLE6=Woody Garrett - She Made My Blood Run Cold
TTITLE7=B. B. King - Yes Man
TTITLE8=Louisiana Red - This Little Letter
TTITLE9=Max Johns - I Could Be Dangerous
TTITLE10=Phillip Walker - Blackjack
TTITLE11=Sam Taylor - Stand By Me
TTITLE12=D.C. Bellamy - Make Love
TTITLE13=Jimmy D. Lane - 24-7
TTITLE14=Jimmy Burns - Leaving Here Walking
TTITLE15=Big Daddy Kinsey - Slow Down
EXTD=
EXTT0=
EXTT1=
EXTT2=
EXTT3=
EXTT4=
EXTT5=
EXTT6=
EXTT7=
EXTT8=
EXTT9=
EXTT10=
EXTT11=
EXTT12=
EXTT13=
EXTT14=
EXTT15=
PLAYORDER=
